<?xml version="1.0" encoding="UTF-8"?>
<svg version="1.1" xmlns="http://www.w3.org/2000/svg" width="298" height="298">
<path d="M0 0 C2.96578236 2.34990417 4.60837941 4.27311248 5.5 8.0625 C6.16 8.0625 6.82 8.0625 7.5 8.0625 C8.58154297 9.46435547 8.58154297 9.46435547 9.7421875 11.4296875 C10.16701416 12.14600342 10.59184082 12.86231934 11.02954102 13.6003418 C11.47354248 14.371604 11.91754395 15.14286621 12.375 15.9375 C12.82609131 16.71456299 13.27718262 17.49162598 13.74194336 18.29223633 C19.34299661 28.09127339 22.67915228 36.50557677 22.5625 47.9375 C22.55347656 49.08992188 22.54445312 50.24234375 22.53515625 51.4296875 C22.51775391 52.73292969 22.51775391 52.73292969 22.5 54.0625 C22.93828125 53.66160156 23.3765625 53.26070312 23.828125 52.84765625 C49.2699115 30.04312811 75.22391593 15.95997386 109.93652344 16.921875 C118.24756793 17.37779516 125.30423337 20.0494763 132.5 24.0625 C132.5 24.7225 132.5 25.3825 132.5 26.0625 C133.10585938 26.31257813 133.71171875 26.56265625 134.3359375 26.8203125 C136.83197046 28.25305344 137.68394493 29.47376068 139.125 31.9375 C139.52976562 32.61554687 139.93453125 33.29359375 140.3515625 33.9921875 C146.84951382 45.70618138 147.34660425 60.73613535 144.1875 73.6796875 C143.8471875 74.85917969 143.8471875 74.85917969 143.5 76.0625 C143.231875 77.01382813 142.96375 77.96515625 142.6875 78.9453125 C138.9498299 91.12388758 132.46987272 100.80256121 124.890625 110.875 C123.37322269 112.89820308 121.90283893 114.9582416 120.5 117.0625 C121.21233344 118.72461136 121.93281598 120.3837326 122.6953125 122.0234375 C124.24231124 125.94350228 124.32902217 129.88360075 124.5 134.0625 C124.53254883 134.77132324 124.56509766 135.48014648 124.59863281 136.21044922 C125.62262608 161.41206142 117.69819907 185.72849513 101.9453125 205.62109375 C100.5 207.0625 100.5 207.0625 98.5 207.0625 C98.5 207.7225 98.5 208.3825 98.5 209.0625 C97.84 209.0625 97.18 209.0625 96.5 209.0625 C96.17 210.0525 95.84 211.0425 95.5 212.0625 C93.24095045 213.82904136 91.01153944 215.42535192 88.625 217 C87.696875 217.64485352 87.696875 217.64485352 86.75 218.30273438 C77.09704018 224.74129765 66.37771502 226.92926006 55.12036133 228.87280273 C52.9356456 229.25032044 50.75394601 229.64246426 48.57226562 230.03710938 C35.9487864 232.2948945 23.6248622 233.2414784 10.8125 233.5625 C2.75214022 233.76709222 -5.28314379 234.01397641 -13.328125 234.58203125 C-46.18210875 236.89930836 -87.17725742 235.89936387 -114.50390625 214.82421875 C-126.48516594 204.24976059 -132.68235813 190.77786377 -134.5 175.0625 C-136.0036354 143.53605608 -131.5545491 105.32795893 -110.5 80.0625 C-109.84 80.0625 -109.18 80.0625 -108.5 80.0625 C-108.005 78.5775 -108.005 78.5775 -107.5 77.0625 C-106.70980469 76.65128906 -105.91960937 76.24007812 -105.10546875 75.81640625 C-101.64371719 73.48608173 -100.98754755 70.8139606 -99.8125 67 C-94.11479867 50.35827483 -84.23019574 34.16929722 -72.5 21.0625 C-71.84 21.0625 -71.18 21.0625 -70.5 21.0625 C-70.28085938 20.51078125 -70.06171875 19.9590625 -69.8359375 19.390625 C-68.07908854 16.32898178 -65.7178083 14.15374269 -63.125 11.8125 C-62.32860107 11.09114868 -62.32860107 11.09114868 -61.51611328 10.35522461 C-44.07055864 -5.1082312 -20.97224551 -14.51924689 0 0 Z " fill="#010101" transform="translate(142.5,29.9375)"/>
<path d="M0 0 C2.96578236 2.34990417 4.60837941 4.27311248 5.5 8.0625 C6.16 8.0625 6.82 8.0625 7.5 8.0625 C8.58154297 9.46435547 8.58154297 9.46435547 9.7421875 11.4296875 C10.16701416 12.14600342 10.59184082 12.86231934 11.02954102 13.6003418 C11.47354248 14.371604 11.91754395 15.14286621 12.375 15.9375 C12.82609131 16.71456299 13.27718262 17.49162598 13.74194336 18.29223633 C19.34299661 28.09127339 22.67915228 36.50557677 22.5625 47.9375 C22.55347656 49.08992188 22.54445312 50.24234375 22.53515625 51.4296875 C22.51775391 52.73292969 22.51775391 52.73292969 22.5 54.0625 C22.93828125 53.66160156 23.3765625 53.26070312 23.828125 52.84765625 C49.2699115 30.04312811 75.22391593 15.95997386 109.93652344 16.921875 C118.24756793 17.37779516 125.30423337 20.0494763 132.5 24.0625 C132.5 24.7225 132.5 25.3825 132.5 26.0625 C133.10585938 26.31257813 133.71171875 26.56265625 134.3359375 26.8203125 C136.83197046 28.25305344 137.68394493 29.47376068 139.125 31.9375 C139.52976562 32.61554687 139.93453125 33.29359375 140.3515625 33.9921875 C146.84951382 45.70618138 147.34660425 60.73613535 144.1875 73.6796875 C143.8471875 74.85917969 143.8471875 74.85917969 143.5 76.0625 C143.231875 77.01382813 142.96375 77.96515625 142.6875 78.9453125 C138.9498299 91.12388758 132.46987272 100.80256121 124.890625 110.875 C123.37322269 112.89820308 121.90283893 114.9582416 120.5 117.0625 C121.21233344 118.72461136 121.93281598 120.3837326 122.6953125 122.0234375 C124.24231124 125.94350228 124.32902217 129.88360075 124.5 134.0625 C124.53254883 134.77132324 124.56509766 135.48014648 124.59863281 136.21044922 C125.62262608 161.41206142 117.69819907 185.72849513 101.9453125 205.62109375 C100.5 207.0625 100.5 207.0625 98.5 207.0625 C98.5 207.7225 98.5 208.3825 98.5 209.0625 C97.84 209.0625 97.18 209.0625 96.5 209.0625 C96.17 210.0525 95.84 211.0425 95.5 212.0625 C93.24095045 213.82904136 91.01153944 215.42535192 88.625 217 C87.696875 217.64485352 87.696875 217.64485352 86.75 218.30273438 C77.09704018 224.74129765 66.37771502 226.92926006 55.12036133 228.87280273 C52.9356456 229.25032044 50.75394601 229.64246426 48.57226562 230.03710938 C35.9487864 232.2948945 23.6248622 233.2414784 10.8125 233.5625 C2.75214022 233.76709222 -5.28314379 234.01397641 -13.328125 234.58203125 C-46.18210875 236.89930836 -87.17725742 235.89936387 -114.50390625 214.82421875 C-126.48516594 204.24976059 -132.68235813 190.77786377 -134.5 175.0625 C-136.0036354 143.53605608 -131.5545491 105.32795893 -110.5 80.0625 C-109.84 80.0625 -109.18 80.0625 -108.5 80.0625 C-108.005 78.5775 -108.005 78.5775 -107.5 77.0625 C-106.70980469 76.65128906 -105.91960937 76.24007812 -105.10546875 75.81640625 C-101.64371719 73.48608173 -100.98754755 70.8139606 -99.8125 67 C-94.11479867 50.35827483 -84.23019574 34.16929722 -72.5 21.0625 C-71.84 21.0625 -71.18 21.0625 -70.5 21.0625 C-70.28085938 20.51078125 -70.06171875 19.9590625 -69.8359375 19.390625 C-68.07908854 16.32898178 -65.7178083 14.15374269 -63.125 11.8125 C-62.32860107 11.09114868 -62.32860107 11.09114868 -61.51611328 10.35522461 C-44.07055864 -5.1082312 -20.97224551 -14.51924689 0 0 Z M-59.5 23.0625 C-60.11488281 23.62582031 -60.72976562 24.18914063 -61.36328125 24.76953125 C-74.96609128 37.62184141 -91.6611017 61.12343223 -92.6875 80.625 C-92.625625 81.429375 -92.56375 82.23375 -92.5 83.0625 C-93.510625 83.0625 -94.52125 83.0625 -95.5625 83.0625 C-99.99168186 83.75622728 -101.97672579 85.96665044 -104.68359375 89.40625 C-121.88116685 114.55538916 -128.42173758 148.66650767 -124.125 178.68212891 C-121.82368803 190.00410434 -116.1177165 200.96066414 -106.8125 208 C-101.08227035 211.62326828 -94.89161493 213.88335625 -88.5 216.0625 C-87.36111328 216.47435547 -87.36111328 216.47435547 -86.19921875 216.89453125 C-83.98042002 217.67591611 -81.75148907 218.38066104 -79.5 219.0625 C-78.41460937 219.3925 -77.32921875 219.7225 -76.2109375 220.0625 C-69.71370207 221.92276109 -63.34137103 223.39227472 -56.625 224.171875 C-55.89667969 224.25645462 -55.16835937 224.34103424 -54.41796875 224.42817688 C-46.86490677 225.2344723 -39.34768025 225.33184416 -31.75830078 225.26831055 C-29.4728702 225.24978003 -27.18784258 225.24780389 -24.90234375 225.24804688 C-18.47333261 225.2324278 -12.12386704 225.1604069 -5.74169922 224.30541992 C-0.5427834 223.74204362 4.7134346 223.76412433 9.9375 223.625 C18.21621482 223.3651591 26.45338117 223.05027264 34.6875 222.125 C35.36159912 222.05031494 36.03569824 221.97562988 36.73022461 221.89868164 C41.73919409 221.28210571 46.59140362 220.19842761 51.5 219.0625 C53.20684895 218.69056867 54.91388627 218.31950092 56.62109375 217.94921875 C70.11660968 215.02234402 70.11660968 215.02234402 82.5 209.0625 C82.5 208.4025 82.5 207.7425 82.5 207.0625 C83.82 206.7325 85.14 206.4025 86.5 206.0625 C86.5 205.4025 86.5 204.7425 86.5 204.0625 C87.06976563 203.83433594 87.63953125 203.60617188 88.2265625 203.37109375 C102.00214444 195.44184985 109.3897894 173.45001906 113.375 158.875 C116.44120311 144.00299691 115.46807686 129.62200091 108.5 116.0625 C107.84 116.0625 107.18 116.0625 106.5 116.0625 C106.5 115.0725 106.5 114.0825 106.5 113.0625 C107.16 113.0625 107.82 113.0625 108.5 113.0625 C108.5 112.4025 108.5 111.7425 108.5 111.0625 C109.098125 110.794375 109.69625 110.52625 110.3125 110.25 C112.49847854 109.06332594 113.91332594 107.96650887 115.5 106.0625 C115.5 105.4025 115.5 104.7425 115.5 104.0625 C116.16 104.0625 116.82 104.0625 117.5 104.0625 C129.08872409 90.29342318 136.60110553 72.70001683 135.92578125 54.58203125 C135.03991307 47.25939613 133.14299251 39.19249319 127.5 34.0625 C124.88181544 32.72951026 124.88181544 32.72951026 122.5 32.0625 C122.5 31.4025 122.5 30.7425 122.5 30.0625 C104.68488809 24.08857026 85.86279765 26.18686219 68.83984375 33.671875 C65.62562504 35.34219605 62.56308955 37.13002727 59.5 39.0625 C57.96085937 40.02542969 57.96085937 40.02542969 56.390625 41.0078125 C44.15980101 48.92370113 28.49403765 59.12635847 21.3203125 72.21484375 C19.5 74.0625 19.5 74.0625 16.14453125 74.453125 C14.87996094 74.40671875 13.61539063 74.3603125 12.3125 74.3125 C11.04019531 74.27640625 9.76789063 74.2403125 8.45703125 74.203125 C7.48121094 74.15671875 6.50539062 74.1103125 5.5 74.0625 C5.83773437 73.51722656 6.17546875 72.97195312 6.5234375 72.41015625 C12.17442164 62.85574666 14.75263103 51.93686511 11.95068359 40.8984375 C9.84148191 33.9385204 7.44124716 27.20587666 3.5 21.0625 C3.005 20.0725 3.005 20.0725 2.5 19.0625 C1.84 19.0625 1.18 19.0625 0.5 19.0625 C0.12875 17.9796875 0.12875 17.9796875 -0.25 16.875 C-3.077571 10.51296524 -7.46777256 7.19438374 -13.5 4.0625 C-15.8727086 3.13783247 -15.8727086 3.13783247 -18.5 3.0625 C-19.21800781 3.000625 -19.93601562 2.93875 -20.67578125 2.875 C-36.24534105 2.1001541 -48.85634009 12.85850935 -59.5 23.0625 Z " fill="#FCFCFC" transform="translate(142.5,29.9375)"/>
<path d="M0 0 C0 0.66 0 1.32 0 2 C0.8971875 2.4021875 0.8971875 2.4021875 1.8125 2.8125 C6.54885943 5.38366655 7.98892694 8.78198829 10.0625 13.6875 C10.56910156 14.86699219 11.07570312 16.04648438 11.59765625 17.26171875 C14.53971248 25.10447032 15.31766151 31.745773 15.25 40.0625 C15.26160156 41.49432617 15.26160156 41.49432617 15.2734375 42.95507812 C15.25850964 48.36269566 14.7863992 52.88891341 13 58 C12.34 58 11.68 58 11 58 C10.90332031 58.73734375 10.80664062 59.4746875 10.70703125 60.234375 C9.90594518 63.36790503 8.82507151 64.85152575 6.6875 67.25 C6.09324219 67.93578125 5.49898437 68.6215625 4.88671875 69.328125 C1.30634827 72.50079284 -3.00414352 72.32367342 -7.60546875 72.30078125 C-11.61287907 71.79740344 -14.53261276 70.01738894 -18 68 C-18 67.34 -18 66.68 -18 66 C-18.99 65.67 -19.98 65.34 -21 65 C-29.89169482 51.36143686 -31.95410618 35.33485599 -29.25 19.5 C-28.18226201 14.93503322 -26.27061294 11.08710329 -24 7 C-23.34 7 -22.68 7 -22 7 C-22 6.34 -22 5.68 -22 5 C-15.61935351 -1.87969146 -8.7056595 -2.41602018 0 0 Z " fill="#FBFBFB" transform="translate(175,139)"/>
<path d="M0 0 C5.24386426 3.97228344 7.03630202 8.85865452 9.0703125 14.94140625 C9.73655838 16.60824117 10.40316458 18.27493216 11.0703125 19.94140625 C14.02109951 30.56423949 11.29010256 42.41881628 6.0703125 51.94140625 C5.4103125 51.94140625 4.7503125 51.94140625 4.0703125 51.94140625 C3.7609375 52.72515625 3.4515625 53.50890625 3.1328125 54.31640625 C2.0703125 56.94140625 2.0703125 56.94140625 1.0703125 58.94140625 C0.4103125 58.94140625 -0.2496875 58.94140625 -0.9296875 58.94140625 C-0.9296875 59.60140625 -0.9296875 60.26140625 -0.9296875 60.94140625 C-12.72646894 66.91446014 -12.72646894 66.91446014 -18.9296875 65.94140625 C-22.3046875 64.62890625 -22.3046875 64.62890625 -24.9296875 62.94140625 C-25.2596875 61.95140625 -25.5896875 60.96140625 -25.9296875 59.94140625 C-26.5484375 59.67328125 -27.1671875 59.40515625 -27.8046875 59.12890625 C-31.08904075 57.29353238 -31.648402 55.48019478 -32.9296875 51.94140625 C-35.07087783 38.96162416 -34.19064516 23.66776562 -26.8671875 12.31640625 C-23.591558 8.30111848 -23.591558 8.30111848 -21.9296875 6.94140625 C-21.2696875 6.94140625 -20.6096875 6.94140625 -19.9296875 6.94140625 C-19.6615625 6.34328125 -19.3934375 5.74515625 -19.1171875 5.12890625 C-17.43071975 2.02225513 -15.81050905 0.44473285 -12.7421875 -1.30859375 C-8.11468101 -2.54259548 -4.17548671 -2.29060101 0 0 Z " fill="#FAFAFA" transform="translate(83.9296875,136.05859375)"/>
<path d="M0 0 C0.99 0.33 1.98 0.66 3 1 C2.814375 2.093125 2.62875 3.18625 2.4375 4.3125 C1.7421932 7.93624133 1.7421932 7.93624133 3 11 C8.20005273 10.46938237 12.25240784 9.14985305 17 7 C19.1875 6.0625 19.1875 6.0625 21 6 C21.56847656 6.64324219 22.13695313 7.28648437 22.72265625 7.94921875 C25.63309483 10.57011113 27.38702563 10.58204459 31.25 10.75 C32.32765625 10.80671875 33.4053125 10.8634375 34.515625 10.921875 C35.74539062 10.96054688 35.74539062 10.96054688 37 11 C37.97591583 7.61682513 37.85856655 5.4342662 37 2 C38.32 2 39.64 2 41 2 C43 4 43 4 43.375 6.8125 C42.91533028 10.7196926 41.75388032 12.24611968 39 15 C35.82454097 16.05848634 33.45991204 16.16670878 30.125 16.1875 C29.09632812 16.20167969 28.06765625 16.21585938 27.0078125 16.23046875 C23.93738457 15.99520219 21.8220922 15.15691258 19 14 C18.154375 14.28875 17.30875 14.5775 16.4375 14.875 C11.31325652 16.55202514 6.33743216 16.74279902 1 16 C-2.15195579 13.50775589 -2.74772305 11.75683086 -4 8 C-4 4.09997401 -2.65926926 2.73985318 0 0 Z " fill="#A7A7A7" transform="translate(95,208)"/>
<path d="M0 0 C0.99 0.33 1.98 0.66 3 1 C2.814375 2.093125 2.62875 3.18625 2.4375 4.3125 C1.7421932 7.93624133 1.7421932 7.93624133 3 11 C5.01508358 11.73323796 5.01508358 11.73323796 7 12 C6.360625 12.12375 5.72125 12.2475 5.0625 12.375 C4.381875 12.58125 3.70125 12.7875 3 13 C2.67 13.66 2.34 14.32 2 15 C2.99 15.33 3.98 15.66 5 16 C2.75 15.875 2.75 15.875 0 15 C-2.51584691 12.0869141 -4.0308487 10.29564536 -3.9375 6.375 C-2.94575599 3.86258184 -1.74669175 2.05046423 0 0 Z " fill="#A5A5A5" transform="translate(95,208)"/>
<path d="M0 0 C-1.75 4.875 -1.75 4.875 -4 6 C-11.30434783 6.23188406 -11.30434783 6.23188406 -15 5 C-14.67 4.01 -14.34 3.02 -14 2 C-12.02 2.495 -12.02 2.495 -10 3 C-10 2.34 -10 1.68 -10 1 C-6.52674819 -0.1577506 -3.63932552 -0.06866652 0 0 Z " fill="#C8C8C8" transform="translate(112,218)"/>
<path d="M0 0 C3.875 1.875 3.875 1.875 5 3 C5.29502561 6.31903813 5.31653751 8.39857872 3.75 11.375 C2 13 2 13 -2 13 C-1.835 12.236875 -1.67 11.47375 -1.5 10.6875 C-0.90854604 7.96403764 -0.90854604 7.96403764 -1 5 C-0.68911632 3.32900023 -0.35919668 1.66128463 0 0 Z " fill="#B6B6B6" transform="translate(133,209)"/>
<path d="M0 0 C2.1875 1.75 2.1875 1.75 4 4 C4 5.32 4 6.64 4 8 C0.7 8.33 -2.6 8.66 -6 9 C-5.34 7.35 -4.68 5.7 -4 4 C-4.99 3.67 -5.98 3.34 -7 3 C-3.375 0 -3.375 0 0 0 Z " fill="#A8A8A8" transform="translate(116,214)"/>
<path d="M0 0 C3.5835705 3.5835705 4.760878 9.23301685 5.19140625 14.21484375 C5.18814178 15.81116803 5.10388762 17.40705643 5 19 C4.34 17.68 3.68 16.36 3 15 C2.34 15 1.68 15 1 15 C0.63355422 13.44033408 0.28239138 11.87707349 -0.0625 10.3125 C-0.25972656 9.44238281 -0.45695313 8.57226562 -0.66015625 7.67578125 C-1.02032279 4.83998724 -0.70909969 2.75210018 0 0 Z " fill="#2E2E2E" transform="translate(252,150)"/>
<path d="M0 0 C1.58323688 -0.027193 3.16661062 -0.04648306 4.75 -0.0625 C6.07257813 -0.07990234 6.07257813 -0.07990234 7.421875 -0.09765625 C9.7818838 -0.00826198 11.74498524 0.33087179 14 1 C14 1.66 14 2.32 14 3 C15.32 3.66 16.64 4.32 18 5 C15.92446352 5.5534764 14.15634036 6 12 6 C12 5.34 12 4.68 12 4 C11.21625 4.04125 10.4325 4.0825 9.625 4.125 C7 4 7 4 5 2 C1.91652174 1.83318891 1.91652174 1.83318891 -1 2 C-0.67 1.34 -0.34 0.68 0 0 Z " fill="#D2D2D2" transform="translate(161,138)"/>
<path d="M0 0 C0.556875 0.391875 1.11375 0.78375 1.6875 1.1875 C-0.13998903 3.65063739 -1.54226216 5.02178618 -4.58203125 5.67578125 C-6.82729346 5.91268293 -9.05705578 6.09111349 -11.3125 6.1875 C-9.9925 5.8575 -8.6725 5.5275 -7.3125 5.1875 C-7.3125 4.1975 -7.3125 3.2075 -7.3125 2.1875 C-3.20088417 -1.12463498 -3.20088417 -1.12463498 0 0 Z " fill="#E3E3E3" transform="translate(180.3125,204.8125)"/>
<path d="M0 0 C-0.66 0 -1.32 0 -2 0 C-2.33 0.66 -2.66 1.32 -3 2 C-5.94140625 2.6328125 -5.94140625 2.6328125 -9.5625 3.125 C-10.76003906 3.29257813 -11.95757812 3.46015625 -13.19140625 3.6328125 C-14.11824219 3.75398437 -15.04507813 3.87515625 -16 4 C-15.67 3.01 -15.34 2.02 -15 1 C-13.0641649 0.63684334 -11.12624752 0.28477269 -9.1875 -0.0625 C-8.10855469 -0.25972656 -7.02960938 -0.45695313 -5.91796875 -0.66015625 C-3 -1 -3 -1 0 0 Z " fill="#2F2F2F" transform="translate(191,248)"/>
<path d="M0 0 C0.33 0.66 0.66 1.32 1 2 C-0.21258505 5.23356015 -1.01284458 6.00856305 -4 8 C-5.20450304 10.55183404 -5.20450304 10.55183404 -6 13 C-7.65 13 -9.3 13 -11 13 C-7.37567295 8.62948797 -3.70445585 4.30277002 0 0 Z " fill="#292929" transform="translate(171,93)"/>
<path d="M0 0 C4.4008703 3.82180842 5.80805531 6.47371099 7 12 C4 11 4 11 2.375 8.8125 C0.91614268 5.82847367 0.38191315 3.28445306 0 0 Z " fill="#282828" transform="translate(269,64)"/>
<path d="M0 0 C0.99 0.33 1.98 0.66 3 1 C2.67 2.32 2.34 3.64 2 5 C1.34 5 0.68 5 0 5 C0 5.99 0 6.98 0 8 C-0.99 7.67 -1.98 7.34 -3 7 C-2.25 2.25 -2.25 2.25 0 0 Z " fill="#D6D6D6" transform="translate(95,208)"/>
<path d="M0 0 C4.29 0 8.58 0 13 0 C13 0.66 13 1.32 13 2 C9.46467997 3.17844001 6.73899692 3 3 3 C3 2.34 3 1.68 3 1 C2.01 0.67 1.02 0.34 0 0 Z " fill="#1A1A1A" transform="translate(146,105)"/>
<path d="M0 0 C2.64 0 5.28 0 8 0 C8 0.99 8 1.98 8 3 C5.03 3 2.06 3 -1 3 C-0.67 2.01 -0.34 1.02 0 0 Z " fill="#DBDBDB" transform="translate(122,221)"/>
<path d="M0 0 C1.98 0 3.96 0 6 0 C6.33 1.65 6.66 3.3 7 5 C4.0625 4.1875 4.0625 4.1875 1 3 C0.67 2.01 0.34 1.02 0 0 Z " fill="#E5E5E5" transform="translate(113,217)"/>
<path d="M0 0 C-3.11910856 1.79275866 -5.67682428 2.34290718 -9.25 2.625 C-10.14203125 2.69976562 -11.0340625 2.77453125 -11.953125 2.8515625 C-12.62859375 2.90054688 -13.3040625 2.94953125 -14 3 C-13 1 -13 1 -10.9375 -0.1875 C-6.94997691 -1.29043192 -4.06662445 -0.68925838 0 0 Z " fill="#C6C6C6" transform="translate(82,135)"/>
<path d="M0 0 C-0.66 1.65 -1.32 3.3 -2 5 C-4.97 4.505 -4.97 4.505 -8 4 C-4.5 0 -4.5 0 0 0 Z " fill="#E2E2E2" transform="translate(112,218)"/>
<path d="M0 0 C0.66 0 1.32 0 2 0 C1.67 2.97 1.34 5.94 1 9 C0.67 8.34 0.34 7.68 0 7 C-0.66 7 -1.32 7 -2 7 C-1.125 2.25 -1.125 2.25 0 0 Z " fill="#282828" transform="translate(151,89)"/>
<path d="M0 0 C0.66 0.33 1.32 0.66 2 1 C1.34 3.97 0.68 6.94 0 10 C-2 6 -2 6 -1.125 2.75 C-0.75375 1.8425 -0.3825 0.935 0 0 Z " fill="#E2E2E2" transform="translate(92,174)"/>
<path d="M0 0 C0.66 0 1.32 0 2 0 C2.66 1.98 3.32 3.96 4 6 C3.01 6.495 3.01 6.495 2 7 C2 6.34 2 5.68 2 5 C1.01 5 0.02 5 -1 5 C-0.67 3.35 -0.34 1.7 0 0 Z " fill="#D5D5D5" transform="translate(133,209)"/>
<path d="M0 0 C0.99 0 1.98 0 3 0 C3 1.65 3 3.3 3 5 C1.68 5 0.36 5 -1 5 C-0.67 3.35 -0.34 1.7 0 0 Z " fill="#E2E2E2" transform="translate(132,217)"/>
<path d="M0 0 C0.66 1.32 1.32 2.64 2 4 C0.35 5.32 -1.3 6.64 -3 8 C-1.125 1.125 -1.125 1.125 0 0 Z " fill="#E1E1E1" transform="translate(150,148)"/>
</svg>
